<?xml version="1.0" encoding="UTF-8"?>
<svg width="258px" height="45px" viewBox="0 0 258 45" version="1.1" xmlns="http://www.w3.org/2000/svg" xmlns:xlink="http://www.w3.org/1999/xlink">
    <!-- Generator: Sketch 63.1 (92452) - https://sketch.com -->
    <title>水印</title>
    <desc>Created with Sketch.</desc>
    <g id="v1.0.0-水印" stroke="none" stroke-width="1" fill="none" fill-rule="evenodd">
        <g id="1.0.0-水印-颜色-copy" transform="translate(-14.000000, -15.000000)">
            <g id="水印" transform="translate(14.000000, 15.000000)">
                <g id="Group" transform="translate(1.000000, 0.000000)" fill="#FF6500">
                    <g id="logo">
                        <g id="Group-6" transform="translate(-0.000000, 0.000000)">
                            <path d="M11.751239,0.159341792 C11.7531459,0.161202447 11.755039,0.163077275 11.756918,0.16496612 L12.6633064,1.07609855 C12.7890405,1.20249068 12.8438113,1.38306515 12.8094767,1.55800843 L11.91819,6.09978855 L17.8645428,6.10027891 C18.7538425,6.10027891 19.4747623,6.82119874 19.4747623,7.71049843 L19.4747623,9.43655996 C19.4747623,9.66512502 19.4261024,9.89107122 19.3320182,10.0993742 L16.292171,16.8296171 C16.0316799,17.4063462 15.4575243,17.7770223 14.8246956,17.7770223 L7.43538739,17.7770223 C6.6583504,17.7770223 5.99215469,17.2221097 5.85169397,16.4578733 L4.29749087,8.00156898 C4.19447756,7.44108112 4.39512662,6.89508456 4.78271771,6.53286541 C4.78679642,6.52859461 4.7913051,6.5238025 4.79591806,6.51907481 L10.9922315,0.168663842 C11.1992514,-0.0435045097 11.5390707,-0.0476781335 11.751239,0.159341792 Z" id="Combined-Shape-Copy-7"></path>
                            <path d="M0.53673984,6.91493542 L2.72764539,6.91493542 C2.98879868,6.91493542 3.21204962,7.10290136 3.25653926,7.36023717 L4.94884779,17.1488444 C4.99934766,17.4409444 4.80349204,17.7186765 4.51139201,17.7691763 C4.48119255,17.7743974 4.45060139,17.7770223 4.41995392,17.7770223 L0.53673984,17.7770223 C0.240306612,17.7770223 1.47324903e-16,17.5367157 0,17.2402825 L0,7.45167526 C-3.63026004e-17,7.15524203 0.240306612,6.91493542 0.53673984,6.91493542 Z" id="Rectangle-Copy"></path>
                        </g>
                        <g id="Group-6-Copy" transform="translate(29.470898, 14.505287) scale(-1, -1) translate(-29.470898, -14.505287) translate(19.727308, 5.113982)">
                            <path d="M11.751239,0.159341792 C11.7531459,0.161202447 11.755039,0.163077275 11.756918,0.16496612 L12.6633064,1.07609855 C12.7890405,1.20249068 12.8438113,1.38306515 12.8094767,1.55800843 L11.91819,6.09978855 L17.8645428,6.10027891 C18.7538425,6.10027891 19.4747623,6.82119874 19.4747623,7.71049843 L19.4747623,9.43655996 C19.4747623,9.66512502 19.4261024,9.89107122 19.3320182,10.0993742 L16.292171,16.8296171 C16.0316799,17.4063462 15.4575243,17.7770223 14.8246956,17.7770223 L7.43538739,17.7770223 C6.6583504,17.7770223 5.99215469,17.2221097 5.85169397,16.4578733 L4.29749087,8.00156898 C4.19447756,7.44108112 4.39512662,6.89508456 4.78271771,6.53286541 C4.78679642,6.52859461 4.7913051,6.5238025 4.79591806,6.51907481 L10.9922315,0.168663842 C11.1992514,-0.0435045097 11.5390707,-0.0476781335 11.751239,0.159341792 Z" id="Combined-Shape-Copy-7"></path>
                            <path d="M0.53673984,6.91493542 L2.72764539,6.91493542 C2.98879868,6.91493542 3.21204962,7.10290136 3.25653926,7.36023717 L4.94884779,17.1488444 C4.99934766,17.4409444 4.80349204,17.7186765 4.51139201,17.7691763 C4.48119255,17.7743974 4.45060139,17.7770223 4.41995392,17.7770223 L0.53673984,17.7770223 C0.240306612,17.7770223 1.06882449e-15,17.5367157 0,17.2402825 L0,7.45167526 C-3.63026004e-17,7.15524203 0.240306612,6.91493542 0.53673984,6.91493542 Z" id="Rectangle-Copy"></path>
                        </g>
                        <path d="M57.3771063,16.8940541 L57.3771063,6.40540541 C57.3771063,5.36108108 57.5079213,4.69297297 57.7695512,4.40108108 C58.0311811,4.10918919 58.5544408,3.92432432 59.3393305,3.84648649 L59.3393305,3.47675676 L54.4991775,3.47675676 L54.4991775,3.84648649 C55.2572334,3.91135135 55.7469509,4.05081081 55.96833,4.26486486 C56.3037529,4.59567568 56.4714644,5.30918919 56.4714644,6.40540541 L56.4714644,13.0702703 L48.5320035,3.47675676 L45.964408,3.47675676 L45.964408,3.84648649 L47.0024749,4.94594595 L47.0024749,13.7318919 C47.0024749,14.7827027 46.8817227,15.4524324 46.6402182,15.7410811 C46.3987136,16.0297297 45.8519743,16.2162162 45,16.3005405 L45,16.6605405 L49.840153,16.6605405 L49.840153,16.3005405 C49.095514,16.2227027 48.6158593,16.0767568 48.4011886,15.8627027 C48.0724741,15.5318919 47.9081169,14.8216216 47.9081169,13.7318919 L47.9081169,5.96756757 L57.0249123,16.8940541 L57.3771063,16.8940541 Z M64.0084178,16.8940541 C65.1018966,16.8940541 66.0259867,16.5437838 66.7806884,15.8432432 C67.53539,15.1427027 68.0502642,14.3805405 68.325311,13.5567568 L67.9731169,13.44 C67.5639009,14.0951351 67.1177884,14.6010811 66.6347794,14.9578378 C66.1517703,15.3145946 65.5580718,15.492973 64.8536836,15.492973 C63.981584,15.492973 63.2268823,15.1491892 62.5895788,14.4616216 C61.9522752,13.7740541 61.6000811,12.6778378 61.5329965,11.172973 L67.9228035,11.172973 C67.9228035,10.0118919 67.5672551,9.11513514 66.8561585,8.4827027 C66.1450619,7.85027027 65.3165672,7.53405405 64.3706746,7.53405405 C63.0893589,7.53405405 62.0495478,8.00756757 61.2512413,8.95459459 C60.4529347,9.90162162 60.0537814,11.027027 60.0537814,12.3308108 C60.0537814,13.5308108 60.3975899,14.5913514 61.0852069,15.5124324 C61.7728239,16.4335135 62.7472275,16.8940541 64.0084178,16.8940541 Z M61.5732473,10.5502703 C61.6780798,10.0183784 61.8503047,9.5772973 62.089922,9.22702703 C62.5392043,8.57189189 63.1906637,8.24432432 64.0443001,8.24432432 C64.9054246,8.24432432 65.5194437,8.52972973 65.8863577,9.10054054 C66.0885347,9.41837838 66.2308074,9.90162162 66.3131759,10.5502703 L61.5732473,10.5502703 Z M78.8609454,16.8551351 C78.9011961,16.8551351 78.9313842,16.8421622 78.9515096,16.8162162 C78.971635,16.7902703 78.9951146,16.7481081 79.0219484,16.6897297 L79.0219484,16.6897297 L82.2420086,9.01297297 C82.4365539,8.55243243 82.5874942,8.26054054 82.6948296,8.1372973 C82.8021649,8.01405405 82.9396883,7.93621622 83.1073998,7.90378378 L83.1073998,7.90378378 L83.1073998,7.62162162 L80.551477,7.62162162 L80.551477,7.90378378 C80.8466492,7.9427027 81.0713825,8.00432432 81.2256771,8.08864865 C81.3799716,8.17297297 81.4571189,8.33513514 81.4571189,8.57513514 C81.4571189,8.72432432 81.4101597,8.94648649 81.3162413,9.24162162 C81.2223229,9.53675676 81.1351129,9.77513514 81.0546114,9.95675676 L81.0546114,9.95675676 L79.2634529,14.1794595 L77.4320437,9.55783784 C77.3582506,9.36324324 77.2995516,9.19297297 77.2559466,9.04702703 C77.2123417,8.90108108 77.1905392,8.76 77.1905392,8.62378378 C77.1905392,8.37081081 77.2878118,8.20216216 77.4823571,8.11783784 C77.6769024,8.03351351 77.9754288,7.96864865 78.3779364,7.92324324 L78.3779364,7.92324324 L78.3779364,7.62162162 L74.1817954,7.62162162 L74.1817954,7.92324324 C74.4903845,7.94918919 74.7302119,8.01891892 74.9012776,8.13243243 C75.0723433,8.24594595 75.2249608,8.44864865 75.3591299,8.74054054 C75.4932991,9.01945946 75.6324996,9.33567568 75.7767315,9.68918919 C75.9209634,10.0427027 75.9930793,10.2843243 75.9930793,10.4140541 L75.9930793,10.4140541 L75.9729539,10.5308108 L74.1616701,14.2864865 L73.0145236,11.5232432 C72.7663106,10.92 72.5617027,10.4075676 72.4006996,9.98594595 C72.1256528,9.25297297 71.9881294,8.79243243 71.9881294,8.60432432 C71.9881294,8.33837838 72.0703081,8.16486486 72.2346653,8.08378378 C72.3990225,8.0027027 72.6354957,7.94918919 72.9440848,7.92324324 L72.9440848,7.92324324 L72.9440848,7.62162162 L69.2208902,7.62162162 L69.2208902,7.92324324 C69.5361878,7.96864865 69.7475042,8.06108108 69.8548396,8.20054054 C69.9621749,8.34 70.1801998,8.80216216 70.5089143,9.58702703 L70.5089143,9.58702703 L73.517658,16.7578378 C73.5310749,16.7837838 73.5780342,16.8162162 73.6585357,16.8551351 C73.692078,16.8551351 73.7205889,16.8437838 73.7440685,16.8210811 C73.7675481,16.7983784 73.7859964,16.7708108 73.7994133,16.7383784 L73.7994133,16.7383784 L76.4459003,11.3189189 L78.7200678,16.7578378 C78.7334847,16.7837838 78.7804439,16.8162162 78.8609454,16.8551351 Z M87.6356094,16.8454054 C88.594919,16.8454054 89.3714231,16.6021622 89.9651217,16.1156757 C90.5588203,15.6291892 90.8556696,15.0032432 90.8556696,14.2378378 C90.8556696,13.2389189 90.1412187,12.3632432 88.712317,11.6108108 L87.3840422,10.92 C86.4582749,10.452973 85.9953912,9.95785135 85.9953912,9.32432432 C85.9953912,8.6907973 86.6152528,8.07210811 87.5551079,8.07210811 C88.1816779,8.07210811 88.919273,8.67016216 89.767893,9.86627027 L90.0697737,9.86627027 L90.0697737,8.16648649 C89.4588567,7.91567568 89.0114025,7.74702703 88.7274111,7.66054054 C88.3014239,7.53081081 87.9106562,7.46594595 87.5551079,7.46594595 C86.7433844,7.46594595 86.0691843,7.69945946 85.5325076,8.16648649 C84.9958309,8.63351351 84.7274925,9.23027027 84.7274925,9.95675676 C84.7274925,10.547027 84.9220379,11.0594595 85.3111285,11.4940541 C85.7002191,11.9286486 86.3073346,12.36 87.132475,12.7881081 L88.2594961,13.4108108 C88.682129,13.6508108 88.9773011,13.8972973 89.1450126,14.1502703 C89.3127241,14.4032432 89.3965798,14.6659459 89.3965798,14.9383784 C89.3965798,15.3664865 89.2506708,15.7151351 88.9588529,15.9843243 C88.6670349,16.2535135 88.2695588,16.3881081 87.7664243,16.3881081 C86.8607824,16.3881081 86.0960181,15.6942811 85.7035733,15.2983784 C85.4419434,15.0344432 85.2263335,14.6809297 85.0567437,14.2378378 L84.7274925,14.2378378 L84.7274925,15.9843243 C85.4139915,16.3421622 85.9271886,16.5643243 86.2670838,16.6508108 C86.7769267,16.7805405 87.2331019,16.8454054 87.6356094,16.8454054 Z M99.2882022,16.9913514 C100.636602,16.9913514 101.88773,16.6345946 103.041585,15.9210811 C103.719139,15.4994595 104.286004,15.0097297 104.742179,14.4518919 L104.359797,14.0821622 C103.742619,14.6464865 103.175754,15.0681081 102.659203,15.347027 C101.760269,15.84 100.77748,16.0864865 99.7108351,16.0864865 C98.2349742,16.0864865 97.0157118,15.5562162 96.053048,14.4956757 C95.0903842,13.4351351 94.6090522,12.0162162 94.6090522,10.2389189 C94.6090522,8.30594595 95.0669046,6.78810811 95.9826092,5.68540541 C96.8983138,4.5827027 98.0773254,4.03135135 99.519644,4.03135135 C100.948546,4.03135135 102.085629,4.54378378 102.930895,5.56864865 C103.373654,6.11351351 103.732556,6.83027027 104.007603,7.71891892 L104.480549,7.71891892 L104.480549,5.56864865 C102.568504,4.01837838 100.851139,3.24324324 99.328453,3.24324324 C97.044424,3.24324324 95.4509638,3.93405405 94.1159805,5.31567568 C92.8480818,6.63243243 92.2141325,8.26054054 92.2141325,10.2 C92.2141325,12.0940541 92.8145395,13.6735135 94.0153536,14.9383784 C95.3167946,16.307027 97.0744108,16.9913514 99.2882022,16.9913514 Z M110.739541,16.6605405 L110.739541,16.3881081 C110.108946,16.3427027 109.693022,16.2372973 109.491768,16.0718919 C109.290514,15.9064865 109.189887,15.5416216 109.189887,14.9772973 L109.189887,14.9772973 L109.189887,3.31135135 C109.189887,3.18162162 109.184856,3.0972973 109.174793,3.05837838 C109.164731,3.01945946 109.13622,3 109.08926,3 C107.814653,3.38918919 106.724529,3.70054054 105.818887,3.93405405 L105.818887,3.93405405 L105.818887,4.25513514 C105.986598,4.21621622 106.125799,4.18702703 106.236488,4.16756757 C106.347178,4.14810811 106.449482,4.13837838 106.5434,4.13837838 C106.952616,4.13837838 107.224309,4.27459459 107.358478,4.54702703 C107.432271,4.70918919 107.469168,5.00432432 107.469168,5.43243243 L107.469168,5.43243243 L107.469168,14.9383784 C107.469168,15.4767568 107.358478,15.8383784 107.137099,16.0232432 C106.91572,16.2081081 106.493087,16.3297297 105.8692,16.3881081 L105.8692,16.3881081 L105.8692,16.6605405 L110.739541,16.6605405 Z M114.060228,16.8064865 C114.610322,16.8064865 115.190604,16.6313514 115.801073,16.2810811 C116.16333,16.0735135 116.59938,15.7556757 117.109223,15.3275676 C117.129348,15.7232432 117.241715,16.0637838 117.446323,16.3491892 C117.650931,16.6345946 117.981322,16.7772973 118.437498,16.7772973 C118.826588,16.7772973 119.20897,16.6540541 119.584644,16.4075676 C119.832857,16.2454054 120.064299,16.0378378 120.27897,15.7848649 L120.27897,15.2789189 C120.030757,15.4540541 119.856337,15.5643243 119.75571,15.6097297 C119.655083,15.6551351 119.527622,15.6778378 119.373328,15.6778378 C119.098281,15.6778378 118.917152,15.5513514 118.829942,15.2983784 C118.776275,15.1556757 118.749441,14.8962162 118.749441,14.52 L118.749441,10.6183784 C118.749441,9.76216216 118.625334,9.11027027 118.377121,8.6627027 C117.914238,7.84540541 117.030516,7.32851351 115.729075,7.32851351 C114.608762,7.32851351 113.760025,7.68486486 113.179743,8.18108108 C112.792889,8.51189189 112.50419,8.85227027 112.313648,9.20221622 L112.828656,9.20221622 C113.544516,8.36549189 114.317296,7.92457297 115.146999,7.87945946 C116.391552,7.81178919 116.649693,8.14054054 116.877781,8.57513514 C117.01195,8.83459459 117.079035,9.29513514 117.079035,9.95675676 L117.079035,10.7837838 C115.234209,11.4518919 114.003206,11.9805405 113.386028,12.3697297 C112.413302,12.9989189 111.926938,13.7837838 111.926938,14.7243243 C111.926938,15.3275676 112.138255,15.8254054 112.560888,16.2178378 C112.983521,16.6102703 113.483301,16.8064865 114.060228,16.8064865 Z M115.197312,15.6291892 C114.875306,15.6291892 114.583488,15.5383784 114.321858,15.3567568 C113.919351,15.0778378 113.718097,14.6432432 113.718097,14.052973 C113.718097,13.32 114.201106,12.6648649 115.167124,12.0875676 C115.670258,11.7891892 116.307562,11.5167568 117.079035,11.2702703 L117.079035,11.2702703 L117.079035,14.3545946 C117.079035,14.7243243 116.876104,15.0291892 116.470242,15.2691892 C116.06438,15.5091892 115.64007,15.6291892 115.197312,15.6291892 Z M125.390815,21 L125.390815,20.6594595 C124.646176,20.6075676 124.163167,20.507027 123.941788,20.3578378 C123.720409,20.2086486 123.609719,19.8064865 123.609719,19.1513514 L123.609719,19.1513514 L123.609719,15.9697297 C123.971976,16.332973 124.367775,16.5827027 124.797116,16.7189189 C125.072163,16.8097297 125.397524,16.8551351 125.773197,16.8551351 C126.987428,16.8551351 127.995374,16.3264865 128.797035,15.2691892 C129.598696,14.2118919 129.999526,13.0345946 129.999526,11.7372973 C129.999526,10.4140541 129.66578,9.37135135 128.998289,8.60918919 C128.330797,7.84702703 127.534168,7.46594595 126.6084,7.46594595 C125.971097,7.46594595 125.350564,7.64756757 124.746803,8.01081081 C124.41138,8.21837838 124.02229,8.53621622 123.579531,8.96432432 L123.579531,8.96432432 L123.579531,7.65081081 C123.579531,7.61189189 123.571146,7.57783784 123.554375,7.54864865 C123.537603,7.51945946 123.512447,7.50486486 123.478904,7.50486486 C122.164046,7.94594595 121.489846,8.16972973 121.456304,8.17621622 L121.456304,8.17621622 L120.500349,8.47783784 L120.500349,8.79891892 C120.621101,8.77945946 120.713342,8.76648649 120.777073,8.76 C120.840803,8.75351351 120.909565,8.75027027 120.983358,8.75027027 C121.325489,8.75027027 121.558608,8.82 121.682715,8.95945946 C121.806821,9.09891892 121.868874,9.41513514 121.868874,9.90810811 L121.868874,9.90810811 L121.868874,19.2486486 C121.868874,19.7221622 121.783341,20.0691892 121.612276,20.2897297 C121.44121,20.5102703 121.04038,20.64 120.409784,20.6789189 L120.409784,20.6789189 L120.409784,21 L125.390815,21 Z M125.612194,16.1837838 C125.142602,16.1837838 124.735063,16.0751351 124.389578,15.8578378 C124.044092,15.6405405 123.784139,15.3113514 123.609719,14.8702703 L123.609719,14.8702703 L123.609719,9.97621622 C123.609719,9.69081081 123.814327,9.40054054 124.223543,9.10540541 C124.632759,8.81027027 125.08558,8.6627027 125.582006,8.6627027 C126.286394,8.6627027 126.90525,8.95783784 127.438572,9.54810811 C127.971895,10.1383784 128.238556,11.0302703 128.238556,12.2237838 C128.238556,13.4691892 127.981957,14.4405405 127.46876,15.1378378 C126.955563,15.8351351 126.336708,16.1837838 125.612194,16.1837838 Z M135.695008,21 L135.695008,20.6594595 C134.950369,20.6075676 134.46736,20.507027 134.245981,20.3578378 C134.024601,20.2086486 133.913912,19.8064865 133.913912,19.1513514 L133.913912,19.1513514 L133.913912,15.9697297 C134.276169,16.332973 134.671968,16.5827027 135.101309,16.7189189 C135.376356,16.8097297 135.701716,16.8551351 136.07739,16.8551351 C137.291621,16.8551351 138.299567,16.3264865 139.101228,15.2691892 C139.902888,14.2118919 140.303719,13.0345946 140.303719,11.7372973 C140.303719,10.4140541 139.969973,9.37135135 139.302481,8.60918919 C138.63499,7.84702703 137.83836,7.46594595 136.912593,7.46594595 C136.275289,7.46594595 135.654757,7.64756757 135.050996,8.01081081 C134.715573,8.21837838 134.326482,8.53621622 133.883724,8.96432432 L133.883724,8.96432432 L133.883724,7.65081081 C133.883724,7.61189189 133.875338,7.57783784 133.858567,7.54864865 C133.841796,7.51945946 133.816639,7.50486486 133.783097,7.50486486 C132.468239,7.94594595 131.794039,8.16972973 131.760497,8.17621622 L131.760497,8.17621622 L130.804541,8.47783784 L130.804541,8.79891892 C130.925294,8.77945946 131.017535,8.76648649 131.081265,8.76 C131.144996,8.75351351 131.213757,8.75027027 131.28755,8.75027027 C131.629682,8.75027027 131.862801,8.82 131.986907,8.95945946 C132.111014,9.09891892 132.173067,9.41513514 132.173067,9.90810811 L132.173067,9.90810811 L132.173067,19.2486486 C132.173067,19.7221622 132.087534,20.0691892 131.916468,20.2897297 C131.745403,20.5102703 131.344572,20.64 130.713977,20.6789189 L130.713977,20.6789189 L130.713977,21 L135.695008,21 Z M135.916387,16.1837838 C135.446795,16.1837838 135.039256,16.0751351 134.69377,15.8578378 C134.348285,15.6405405 134.088332,15.3113514 133.913912,14.8702703 L133.913912,14.8702703 L133.913912,9.97621622 C133.913912,9.69081081 134.11852,9.40054054 134.527736,9.10540541 C134.936952,8.81027027 135.389773,8.6627027 135.886199,8.6627027 C136.590587,8.6627027 137.209442,8.95783784 137.742765,9.54810811 C138.276087,10.1383784 138.542748,11.0302703 138.542748,12.2237838 C138.542748,13.4691892 138.28615,14.4405405 137.772953,15.1378378 C137.259756,15.8351351 136.6409,16.1837838 135.916387,16.1837838 Z M145.284749,16.8940541 C146.378228,16.8940541 147.302318,16.5437838 148.05702,15.8432432 C148.811722,15.1427027 149.326596,14.3805405 149.601643,13.5567568 L149.249449,13.44 C148.840233,14.0951351 148.39412,14.6010811 147.911111,14.9578378 C147.428102,15.3145946 146.834403,15.492973 146.130015,15.492973 C145.257916,15.492973 144.503214,15.1491892 143.86591,14.4616216 C143.228607,13.7740541 142.876413,12.6778378 142.809328,11.172973 L149.199135,11.172973 C149.199135,10.0118919 148.843587,9.11513514 148.13249,8.4827027 C147.421394,7.85027027 146.592899,7.53405405 145.647006,7.53405405 C144.365691,7.53405405 143.325879,8.00756757 142.527573,8.95459459 C141.729266,9.90162162 141.330113,11.027027 141.330113,12.3308108 C141.330113,13.5308108 141.673922,14.5913514 142.361539,15.5124324 C143.049156,16.4335135 144.023559,16.8940541 145.284749,16.8940541 Z M147.589508,10.5502703 L142.849579,10.5502703 C142.954411,10.0183784 143.126636,9.5772973 143.366254,9.22702703 C143.815536,8.57189189 144.466995,8.24432432 145.320632,8.24432432 C146.181756,8.24432432 146.795775,8.52972973 147.162689,9.10054054 C147.364866,9.41837838 147.507139,9.90162162 147.589508,10.5502703 L147.589508,10.5502703 Z M155.126058,16.6605405 L155.126058,16.3394595 C154.502172,16.3524324 154.056059,16.2502703 153.787721,16.032973 C153.519383,15.8156757 153.385213,15.4281081 153.385213,14.8702703 L153.385213,10.4821622 C153.385213,10.092973 153.556279,9.71513514 153.89841,9.34864865 C154.240542,8.98216216 154.769537,8.44397838 155.415059,8.44397838 C155.845406,8.44397838 156.23853,8.58012973 156.594431,8.85243243 L156.989266,8.82810811 C157.029902,8.33195676 156.955162,7.99718919 156.765044,7.82380541 C156.479867,7.56372973 156.192703,7.49513514 155.850572,7.49513514 C155.421231,7.49513514 155.006983,7.6572973 154.60783,7.98162162 C154.208677,8.30594595 153.794429,8.75675676 153.365088,9.33405405 L153.365088,7.73837838 C153.365088,7.63459459 153.360057,7.56648649 153.349994,7.53405405 C153.339931,7.50162162 153.31142,7.48540541 153.264461,7.48540541 C152.908913,7.64108108 152.563427,7.78054054 152.228004,7.90378378 C152.07371,7.96216216 151.795309,8.05945946 151.392801,8.19567568 C150.990294,8.33189189 150.597849,8.46486486 150.215467,8.59459459 L150.215467,8.91567568 C150.336219,8.88972973 150.45194,8.86864865 150.562629,8.85243243 C150.673319,8.83621622 150.762206,8.82810811 150.829291,8.82810811 C151.158005,8.82810811 151.384416,8.96594595 151.508522,9.24162162 C151.632628,9.5172973 151.694682,9.97621622 151.694682,10.6183784 L151.694682,15.0064865 C151.694682,15.5254054 151.594055,15.8643243 151.392801,16.0232432 C151.191547,16.1821622 150.782331,16.2875676 150.165153,16.3394595 L150.165153,16.6605405 L155.126058,16.6605405 Z" id="NewsClapper-Copy" fill-rule="nonzero"></path>
                    </g>
                </g>
                <text id="@Maymaymaymaymaymaym" font-family="SFProText-Medium, SF Pro Text" font-size="15" font-weight="400" fill="#FFFFFF">
                    <tspan x="1" y="40">@Maymaymaymaymaymaymaymay</tspan>
                </text>
            </g>
        </g>
    </g>
</svg>