<?xml version="1.0" encoding="UTF-8"?>
<svg width="261px" height="43px" viewBox="0 0 261 43" version="1.1" xmlns="http://www.w3.org/2000/svg" xmlns:xlink="http://www.w3.org/1999/xlink">
    <!-- Generator: Sketch 63.1 (92452) - https://sketch.com -->
    <title>水印 copy 5</title>
    <desc>Created with Sketch.</desc>
    <g id="v1.0.0-水印" stroke="none" stroke-width="1" fill="none" fill-rule="evenodd">
        <g id="1.0.0-水印-颜色-copy-2" transform="translate(-11.000000, -67.000000)">
            <g id="水印-copy-5" transform="translate(11.000000, 67.000000)">
                <text id="@Maymaymaymaymaymaym" font-family="SFProText-Semibold, SF Pro Text" font-size="15" font-weight="500" fill="#FFFFFF">
                    <tspan x="0" y="40">@Maymaymaymaymaymaymaymay</tspan>
                </text>
                <g id="Group-3" fill="#FF6500">
                    <g id="Group">
                        <g id="logo">
                            <g id="Group-6" transform="translate(-0.000000, 0.000000)">
                                <path d="M11.751239,0.159341792 C11.7531459,0.161202447 11.755039,0.163077275 11.756918,0.16496612 L12.6633064,1.07609855 C12.7890405,1.20249068 12.8438113,1.38306515 12.8094767,1.55800843 L11.91819,6.09978855 L17.8645428,6.10027891 C18.7538425,6.10027891 19.4747623,6.82119874 19.4747623,7.71049843 L19.4747623,9.43655996 C19.4747623,9.66512502 19.4261024,9.89107122 19.3320182,10.0993742 L16.292171,16.8296171 C16.0316799,17.4063462 15.4575243,17.7770223 14.8246956,17.7770223 L7.43538739,17.7770223 C6.6583504,17.7770223 5.99215469,17.2221097 5.85169397,16.4578733 L4.29749087,8.00156898 C4.19447756,7.44108112 4.39512662,6.89508456 4.78271771,6.53286541 C4.78679642,6.52859461 4.7913051,6.5238025 4.79591806,6.51907481 L10.9922315,0.168663842 C11.1992514,-0.0435045097 11.5390707,-0.0476781335 11.751239,0.159341792 Z" id="Combined-Shape-Copy-7"></path>
                                <path d="M0.53673984,6.91493542 L2.72764539,6.91493542 C2.98879868,6.91493542 3.21204962,7.10290136 3.25653926,7.36023717 L4.94884779,17.1488444 C4.99934766,17.4409444 4.80349204,17.7186765 4.51139201,17.7691763 C4.48119255,17.7743974 4.45060139,17.7770223 4.41995392,17.7770223 L0.53673984,17.7770223 C0.240306612,17.7770223 1.47324903e-16,17.5367157 0,17.2402825 L0,7.45167526 C-3.63026004e-17,7.15524203 0.240306612,6.91493542 0.53673984,6.91493542 Z" id="Rectangle-Copy"></path>
                            </g>
                            <g id="Group-6-Copy" transform="translate(29.470898, 14.505287) scale(-1, -1) translate(-29.470898, -14.505287) translate(19.727308, 5.113982)">
                                <path d="M11.751239,0.159341792 C11.7531459,0.161202447 11.755039,0.163077275 11.756918,0.16496612 L12.6633064,1.07609855 C12.7890405,1.20249068 12.8438113,1.38306515 12.8094767,1.55800843 L11.91819,6.09978855 L17.8645428,6.10027891 C18.7538425,6.10027891 19.4747623,6.82119874 19.4747623,7.71049843 L19.4747623,9.43655996 C19.4747623,9.66512502 19.4261024,9.89107122 19.3320182,10.0993742 L16.292171,16.8296171 C16.0316799,17.4063462 15.4575243,17.7770223 14.8246956,17.7770223 L7.43538739,17.7770223 C6.6583504,17.7770223 5.99215469,17.2221097 5.85169397,16.4578733 L4.29749087,8.00156898 C4.19447756,7.44108112 4.39512662,6.89508456 4.78271771,6.53286541 C4.78679642,6.52859461 4.7913051,6.5238025 4.79591806,6.51907481 L10.9922315,0.168663842 C11.1992514,-0.0435045097 11.5390707,-0.0476781335 11.751239,0.159341792 Z" id="Combined-Shape-Copy-7"></path>
                                <path d="M0.53673984,6.91493542 L2.72764539,6.91493542 C2.98879868,6.91493542 3.21204962,7.10290136 3.25653926,7.36023717 L4.94884779,17.1488444 C4.99934766,17.4409444 4.80349204,17.7186765 4.51139201,17.7691763 C4.48119255,17.7743974 4.45060139,17.7770223 4.41995392,17.7770223 L0.53673984,17.7770223 C0.240306612,17.7770223 1.06882449e-15,17.5367157 0,17.2402825 L0,7.45167526 C-3.63026004e-17,7.15524203 0.240306612,6.91493542 0.53673984,6.91493542 Z" id="Rectangle-Copy"></path>
                            </g>
                        </g>
                    </g>
                    <path d="M52.296875,18.5214844 L52.296875,10.7119141 L52.5117188,10.7119141 L58.3984375,18.5214844 L61.9003906,18.5214844 L61.9003906,3.02050781 L57.6035156,3.02050781 L57.6035156,10.7119141 L57.3886719,10.7119141 L51.5341797,3.02050781 L48,3.02050781 L48,18.5214844 L52.296875,18.5214844 Z M70.7412109,18.8222656 C74.0068359,18.8222656 76.3164062,17.2753906 76.6923828,14.8369141 L72.7285156,14.8369141 C72.5351562,15.4384766 71.8476562,15.7929688 70.8701172,15.7929688 C69.5810547,15.7929688 68.796875,14.9873047 68.796875,13.6552734 L68.796875,13.4189453 L76.7460938,13.4189453 L76.7460938,12.2695312 C76.7460938,8.38085938 74.5224609,6.14648438 70.6660156,6.14648438 C66.7988281,6.14648438 64.4892578,8.55273438 64.4892578,12.5917969 C64.4892578,16.5878906 66.734375,18.8222656 70.7412109,18.8222656 Z M72.5351562,11.0234375 L68.8183594,11.0234375 C68.9042969,9.89550781 69.6455078,9.17578125 70.6982422,9.17578125 C71.7939453,9.17578125 72.4599609,9.84179688 72.5351562,11.0234375 Z M85.8984375,18.5214844 L87.5205078,10.9804688 L87.7353516,10.9804688 L89.3789062,18.5214844 L94.1591797,18.5214844 L97.2099609,6.44726562 L92.859375,6.44726562 L91.6132812,14.3212891 L91.3984375,14.3212891 L89.8085938,6.44726562 L85.6083984,6.44726562 L84.0507812,14.3212891 L83.8359375,14.3212891 L82.5898438,6.44726562 L78.1318359,6.44726562 L81.2041016,18.5214844 L85.8984375,18.5214844 Z M104.557617,18.8222656 C108.124023,18.8222656 110.347656,17.1894531 110.347656,14.5791016 C110.347656,12.7207031 109.337891,11.7324219 106.931641,11.2490234 L104.256836,10.7119141 C103.44043,10.5507812 103.075195,10.3037109 103.075195,9.89550781 C103.075195,9.36914062 103.644531,9.02539062 104.514648,9.02539062 C105.427734,9.02539062 105.975586,9.37988281 106.050781,10.0136719 L110.003906,10.0136719 C109.907227,7.44628906 108.048828,6.14648438 104.460938,6.14648438 C101.012695,6.14648438 98.9179688,7.671875 98.9179688,10.1855469 C98.9179688,12.1298828 100.15332,13.3652344 102.591797,13.859375 L104.890625,14.3320312 C105.75,14.5039062 106.040039,14.6972656 106.040039,15.1054688 C106.040039,15.6210938 105.492188,15.9433594 104.611328,15.9433594 C103.601562,15.9433594 103,15.6103516 102.849609,14.9443359 L98.6386719,14.9443359 C98.8642578,17.5009766 100.873047,18.8222656 104.557617,18.8222656 Z M119.908203,18.9511719 C124.086914,18.9511719 127.094727,16.2548828 127.116211,12.484375 L122.765625,12.484375 C122.625977,14.1171875 121.476562,15.2021484 119.918945,15.2021484 C118.006836,15.2021484 116.84668,13.515625 116.84668,10.7548828 C116.84668,8.00488281 118.006836,6.33984375 119.908203,6.33984375 C121.476562,6.33984375 122.625977,7.43554688 122.744141,9.03613281 L127.094727,9.03613281 C127.083984,5.3515625 124.000977,2.59082031 119.908203,2.59082031 C115.117188,2.59082031 112.206055,5.68457031 112.206055,10.765625 C112.206055,15.8466797 115.12793,18.9511719 119.908203,18.9511719 Z M133.969727,18.5214844 L133.969727,2 L129.56543,2 L129.56543,18.5214844 L133.969727,18.5214844 Z M140.135742,18.6933594 C141.650391,18.6933594 142.97168,18.0595703 143.433594,17.1035156 L143.648438,17.1035156 L143.648438,18.5214844 L147.945312,18.5214844 L147.945312,10.3037109 C147.945312,7.66113281 145.979492,6.14648438 142.53125,6.14648438 C139.061523,6.14648438 136.859375,7.65039062 136.708984,10.1210938 L140.597656,10.1210938 C140.844727,9.5625 141.392578,9.29394531 142.262695,9.29394531 C143.111328,9.29394531 143.626953,9.68066406 143.626953,10.3037109 L143.626953,11.1953125 L141.242188,11.3349609 C138.041016,11.5175781 136.290039,12.8173828 136.290039,15.0195312 C136.290039,17.2324219 137.826172,18.6933594 140.135742,18.6933594 Z M141.854492,15.7285156 C141.016602,15.7285156 140.490234,15.3203125 140.490234,14.6865234 C140.490234,14.0957031 141.027344,13.7089844 141.951172,13.6445312 L143.626953,13.5263672 L143.626953,14.2353516 C143.626953,15.0732422 142.842773,15.7285156 141.854492,15.7285156 Z M155.078125,22.4960938 L155.078125,16.6523438 L155.292969,16.6523438 C155.819336,17.9306641 157.076172,18.6933594 158.816406,18.6933594 C161.813477,18.6933594 163.510742,16.4697266 163.510742,12.484375 C163.510742,8.48828125 161.749023,6.27539062 158.708984,6.27539062 C157.033203,6.27539062 155.733398,7.0703125 155.185547,8.40234375 L154.970703,8.40234375 L154.970703,6.44726562 L150.673828,6.44726562 L150.673828,22.4960938 L155.078125,22.4960938 Z M157.033203,15.2988281 C155.797852,15.2988281 155.067383,14.2675781 155.056641,12.4951172 C155.067383,10.7333984 155.808594,9.66992188 157.033203,9.66992188 C158.257812,9.66992188 158.999023,10.7441406 158.999023,12.484375 C158.999023,14.2460938 158.268555,15.2988281 157.033203,15.2988281 Z M170.117188,22.4960938 L170.117188,16.6523438 L170.332031,16.6523438 C170.858398,17.9306641 172.115234,18.6933594 173.855469,18.6933594 C176.852539,18.6933594 178.549805,16.4697266 178.549805,12.484375 C178.549805,8.48828125 176.788086,6.27539062 173.748047,6.27539062 C172.072266,6.27539062 170.772461,7.0703125 170.224609,8.40234375 L170.009766,8.40234375 L170.009766,6.44726562 L165.712891,6.44726562 L165.712891,22.4960938 L170.117188,22.4960938 Z M172.072266,15.2988281 C170.836914,15.2988281 170.106445,14.2675781 170.095703,12.4951172 C170.106445,10.7333984 170.847656,9.66992188 172.072266,9.66992188 C173.296875,9.66992188 174.038086,10.7441406 174.038086,12.484375 C174.038086,14.2460938 173.307617,15.2988281 172.072266,15.2988281 Z M186.413086,18.8222656 C189.678711,18.8222656 191.988281,17.2753906 192.364258,14.8369141 L188.400391,14.8369141 C188.207031,15.4384766 187.519531,15.7929688 186.541992,15.7929688 C185.25293,15.7929688 184.46875,14.9873047 184.46875,13.6552734 L184.46875,13.4189453 L192.417969,13.4189453 L192.417969,12.2695312 C192.417969,8.38085938 190.194336,6.14648438 186.337891,6.14648438 C182.470703,6.14648438 180.161133,8.55273438 180.161133,12.5917969 C180.161133,16.5878906 182.40625,18.8222656 186.413086,18.8222656 Z M188.207031,11.0234375 L184.490234,11.0234375 C184.576172,9.89550781 185.317383,9.17578125 186.370117,9.17578125 C187.46582,9.17578125 188.131836,9.84179688 188.207031,11.0234375 Z M199.024414,18.5214844 L199.024414,12.4628906 C199.024414,10.7763672 200.087891,9.90625 201.731445,9.90625 C202.386719,9.90625 203.170898,10.0136719 203.514648,10.1533203 L203.514648,6.50097656 C203.213867,6.35058594 202.558594,6.27539062 201.989258,6.27539062 C200.517578,6.27539062 199.411133,7.26367188 199.131836,8.48828125 L198.916992,8.48828125 L198.916992,6.44726562 L194.620117,6.44726562 L194.620117,18.5214844 L199.024414,18.5214844 Z" id="NewsClapper" fill-rule="nonzero"></path>
                </g>
            </g>
        </g>
    </g>
</svg>